<svg xmlns="http://www.w3.org/2000/svg" viewBox="0 0 24 24" fill="currentColor">
  <path d="m13.736 5.853 4.005-4.117 2.325 2.38-4.2 4.005h5.908v3.305h-5.937l4.229 4.108-2.325 2.334-5.74-5.769-5.741 5.769-2.325-2.325 4.229-4.108H2.226V8.121h5.909l-4.2-4.004 2.324-2.381 4.005 4.117V0h3.472v5.853zM10.264 24v-5.853L6.259 22.264l-2.325-2.381 4.2-4.005H2.226v-3.304h5.937l-4.229-4.108 2.325-2.334 5.74 5.769 5.741-5.769 2.325 2.325-4.229 4.108h5.908v3.305h-5.909l4.2 4.004-2.324 2.381-4.005-4.117V24h-3.472z"/>
</svg>
